<svg xmlns="http://www.w3.org/2000/svg" xmlns:xlink="http://www.w3.org/1999/xlink" width="40" height="40" viewBox="0 0 40 40">
    <defs>
        <path id="cmu6iowm4a" d="M0 0L31.667 0 31.667 31.667 0 31.667z"/>
    </defs>
    <g fill="none" fill-rule="evenodd">
        <g>
            <g>
                <g>
                    <g>
                        <g>
                            <g transform="translate(-1037 -431) translate(989 423) translate(24 8) translate(24) translate(4.167 4.167)">
                                <mask id="dbvi3d31eb" fill="#fff">
                                    <use xlink:href="#cmu6iowm4a"/>
                                </mask>
                                <path fill="#5284FF" d="M26.297 14.514c-.652-5.199-5.091-9.236-10.464-9.236-5.372 0-9.811 4.037-10.463 9.236H2.639V2.639h26.389v11.875h-2.73zm-18.38 1.32c0-4.373 3.544-7.917 7.916-7.917 4.373 0 7.917 3.544 7.917 7.916 0 4.373-3.544 7.917-7.917 7.917-4.372 0-7.916-3.544-7.916-7.917zm21.11 13.194H2.64V17.153h2.73c.653 5.198 5.092 9.236 10.464 9.236 5.373 0 9.812-4.038 10.464-9.236h2.73v11.875zm0-29.028H2.64C1.18 0-.001 1.18-.001 2.639v26.389c0 1.457 1.182 2.639 2.64 2.639h26.389c1.457 0 2.639-1.182 2.639-2.64V2.64c0-1.458-1.182-2.64-2.64-2.64z" mask="url(#dbvi3d31eb)"/>
                            </g>
                            <path fill="#5284FF" d="M15.833 13.194c1.458 0 2.64 1.182 2.64 2.64 0 1.457-1.182 2.638-2.64 2.638-1.457 0-2.639-1.181-2.639-2.639 0-1.457 1.182-2.639 2.64-2.639m0 7.917c2.91 0 5.277-2.367 5.277-5.278 0-2.91-2.367-5.277-5.278-5.277-2.91 0-5.277 2.367-5.277 5.277s2.367 5.278 5.277 5.278" transform="translate(-1037 -431) translate(989 423) translate(24 8) translate(24) translate(4.167 4.167)"/>
                        </g>
                    </g>
                </g>
            </g>
        </g>
    </g>
</svg>
